<svg width="700" height="700" viewBox="0 0 700 700" fill="none" xmlns="http://www.w3.org/2000/svg">
<path d="M676 261C676 331.14 619.14 388 549 388C478.86 388 422 331.14 422 261C422 190.86 478.86 134 549 134C619.14 134 676 190.86 676 261Z" fill="#FF716C"/>
<path d="M422.333 134H549.333V567H422.333V134Z" fill="#FF716C"/>
<path d="M488 440C488 510.14 428.678 567 355.5 567C282.322 567 223 510.14 223 440C223 369.86 282.322 313 355.5 313C428.678 313 488 369.86 488 440Z" fill="#4FB8DE"/>
<path d="M477 261C477 331.14 420.14 388 350 388C279.86 388 223 331.14 223 261C223 190.86 279.86 134 350 134C420.14 134 477 190.86 477 261Z" fill="#4FB8DE"/>
<path d="M223 134H350V567H223V134Z" fill="#4FB8DE"/>
<path d="M288.667 440C288.667 510.14 229.344 567 156.167 567C82.989 567 23.6667 510.14 23.6667 440C23.6667 369.86 82.989 313 156.167 313C229.344 313 288.667 369.86 288.667 440Z" fill="#F8C53C"/>
<path d="M278 261C278 331.14 221.14 388 151 388C80.8598 388 24 331.14 24 261C24 190.86 80.8598 134 151 134C221.14 134 278 190.86 278 261Z" fill="#F8C53C"/>
<path d="M24 134H151V567H24V134Z" fill="#F8C53C"/>
</svg>
